<?xml version="1.0" encoding="UTF-8"?>
<svg id="Layer_1" xmlns="http://www.w3.org/2000/svg" version="1.1" viewBox="0 0 298.823 80" fill="#FFFFFF">
  <!-- Generator: Adobe Illustrator 30.2.1, SVG Export Plug-In . SVG Version: 2.1.1 Build 1)  -->
  <defs>
    <style>
      .st0 {
        fill-rule: evenodd;
      }
    </style>
  </defs>
  <path class="st0" d="M298.823,21.382v15.056c-1.498-.3-2.996-.449-4.494-.449-4.27,0-7.715,1.236-10.337,3.708-2.622,2.397-3.932,6.367-3.932,11.91v28.134h-14.943V21.607h14.494v8.202c2.697-5.768,7.94-8.651,15.73-8.651.824,0,1.985.075,3.483.225Z"/>
  <polygon class="st0" points="207.398 24.462 185.263 47.719 207.847 79.741 189.533 79.741 174.927 58.618 168.747 65.135 168.747 79.741 153.804 79.741 153.804 0 168.747 0 168.747 45.023 187.848 24.462 207.398 24.462"/>
  <path class="st0" d="M121.614,35.169c-3.97,0-7.303,1.386-10,4.157-2.697,2.771-4.045,6.554-4.045,11.348s1.348,8.614,4.045,11.461c2.771,2.771,6.142,4.157,10.112,4.157,3.521,0,6.329-.899,8.427-2.697,2.097-1.873,3.521-4.082,4.27-6.629l13.146,4.382c-1.348,5.093-4.27,9.476-8.764,13.146-4.494,3.67-10.187,5.505-17.078,5.505-8.24,0-15.168-2.771-20.786-8.314-5.543-5.618-8.314-12.622-8.314-21.011,0-8.464,2.734-15.468,8.202-21.01,5.543-5.543,12.359-8.314,20.449-8.314,7.041,0,12.809,1.835,17.303,5.505,4.494,3.595,7.378,7.977,8.651,13.146l-13.37,4.494c-1.798-6.217-5.88-9.325-12.247-9.325Z"/>
  <rect x="71.337" y="20.332" width="14.981" height="59.567"/>
  <rect x="71.337" y="0" width="14.981" height="14.981"/>
  <path d="M64.917,14.982h-24.968V0h24.968v14.981ZM24.968,14.982H0V0h24.968v14.981ZM39.949,79.899h-14.981V14.982h14.981v64.917Z"/>
  <path d="M231.531,33.484c-3.595,0-6.517,1.124-8.764,3.371-2.247,2.247-3.446,4.756-3.595,7.528h24.718c-.147-3.004-1.225-5.543-3.236-7.615l-.135-.137c-2.022-2.097-5.018-3.146-8.988-3.146ZM231.306,21.35c8.446,0,15.061,2.492,19.843,7.475l.157.165c4.815,5.037,7.249,11.943,7.302,20.717v.445c-.009.588-.059,2.24-.15,4.956h-39.549c.15,3.595,1.499,6.091,4.195,8.488,2.697,2.397,5.917,3.595,9.663,3.595,6.367,0,10.562-2.809,12.584-8.427l12.472,3.708c-1.473,5.009-4.359,9.148-8.657,12.418l-.22.166c-4.344,3.296-9.775,4.944-16.291,4.944-7.94,0-14.682-2.659-20.224-7.977-4.555-4.432-7.238-10.078-8.05-16.939h14.545s.246-10.701.246-10.701h-14.557c.99-5.737,3.454-10.614,7.393-14.631l.198-.2c5.393-5.468,11.76-8.202,19.101-8.202Z"/>
</svg>
