<?xml version="1.0" encoding="UTF-8"?>
<svg id="Layer_1" xmlns="http://www.w3.org/2000/svg" version="1.1" viewBox="0 0 523.5 284.9">
  <!-- Generator: Adobe Illustrator 30.6.0, SVG Export Plug-In . SVG Version: 2.1.4 Build 109)  -->
  <defs>
    <style>
      .st0 {
        fill: gray;
      }
    </style>
  </defs>
  <path class="st0" d="M146.3,131.6h-21.5c-5.7,0-8.5,2.8-8.5,8.5v26.8c0,5.8,2.8,8.7,8.5,8.7h21.5c5.8,0,8.7-2.8,8.7-8.4v-27.1c0-5.7-2.9-8.5-8.7-8.5ZM146.3,131.6h-21.5c-5.7,0-8.5,2.8-8.5,8.5v26.8c0,5.8,2.8,8.7,8.5,8.7h21.5c5.8,0,8.7-2.8,8.7-8.4v-27.1c0-5.7-2.9-8.5-8.7-8.5ZM207.8,2.2C159.4-17.7-26.2,101.2,3.1,171.7c29.4,70.5,200.3,134.7,268.4,106.3,68.1-28.4,20.8-241.1-63.8-275.8ZM99.6,131.6h-25.6c-5.7,0-8.5,2.8-8.5,8.5v26.8c0,5.8,2.8,8.7,8.5,8.7h25.6s0,9.6,0,9.6h-25.6c-12.1,0-18.2-6.1-18.2-18.3v-26.8c0-12.1,6.1-18.2,18.2-18.2h25.6v9.6ZM164.6,167.3c0,12-6.1,18-18.3,18h-21.5c-12.1,0-18.2-6.1-18.2-18.3v-26.8c0-12.1,6.1-18.2,18.2-18.2h21.5c12.2,0,18.3,6.1,18.3,18.2v27.1ZM199.5,131.6h-7.5c-5.7,0-8.5,2.8-8.5,8.5v45.1h-9.6v-45.1c0-12.1,6.1-18.2,18.2-18.2h7.5v9.6ZM258.6,167c0,12.2-6.1,18.3-18.2,18.3h-21.5c-12.1,0-18.2-5.7-18.2-17.2v-2.3c0-11.3,6.1-16.9,18.2-16.9h24.5v9.6h-24.5c-5.7,0-8.5,2.4-8.5,7.3v2.3c0,5,2.8,7.5,8.5,7.5h21.5c5.7,0,8.5-2.9,8.5-8.7v-26.8c0-5.7-2.8-8.5-8.5-8.5h-34.2s0-9.6,0-9.6h34.2c12.1,0,18.2,6.1,18.2,18.2v26.8ZM146.3,131.6h-21.5c-5.7,0-8.5,2.8-8.5,8.5v26.8c0,5.8,2.8,8.7,8.5,8.7h21.5c5.8,0,8.7-2.8,8.7-8.4v-27.1c0-5.7-2.9-8.5-8.7-8.5ZM146.3,131.6h-21.5c-5.7,0-8.5,2.8-8.5,8.5v26.8c0,5.8,2.8,8.7,8.5,8.7h21.5c5.8,0,8.7-2.8,8.7-8.4v-27.1c0-5.7-2.9-8.5-8.7-8.5ZM146.3,131.6h-21.5c-5.7,0-8.5,2.8-8.5,8.5v26.8c0,5.8,2.8,8.7,8.5,8.7h21.5c5.8,0,8.7-2.8,8.7-8.4v-27.1c0-5.7-2.9-8.5-8.7-8.5Z"/>
  <path class="st0" d="M419.3,122c12.2,0,18.3,6.1,18.3,18.2v27.1c0,12-6.1,18-18.3,18h-21.5c-12.1,0-18.2-6.1-18.2-18.3v-26.8c0-12.1,6.1-18.2,18.2-18.2h21.5ZM397.7,131.6c-5.7,0-8.5,2.8-8.5,8.5v26.8c0,5.8,2.8,8.6,8.5,8.6h21.5c5.8,0,8.6-2.8,8.6-8.4v-27.1c0-5.7-2.9-8.5-8.6-8.5h-21.5ZM446.7,95.1h9.6v90.2h-9.6v-90.2ZM513.8,95.1h9.7v72c0,12.2-6.1,18.3-18.3,18.3h-21.5c-12.1,0-18.2-6.1-18.2-18.3v-26.9c0-12.1,6.1-18.2,18.2-18.2h24.5v9.6h-24.5c-5.7,0-8.5,2.8-8.5,8.5v26.8c0,5.8,2.8,8.6,8.5,8.6h21.5c5.8,0,8.6-2.9,8.6-8.6v-71.9ZM352,197.2c5.8,0,8.6-2.9,8.6-8.7v-48.3c0-5.7-2.9-8.5-8.6-8.5h-21.5c-5.7,0-8.5,2.8-8.5,8.5v26.8c0,5.8,2.8,8.6,8.5,8.6h24.5v9.6h-24.5c-12.1,0-18.2-6.1-18.2-18.3v-26.8c0-12.1,6.1-18.2,18.2-18.2h21.5c12.2,0,18.3,6.1,18.3,18.2v48.3c0,12.1-6.1,18.2-18.3,18.2h-23.6v-9.5h23.6Z"/>
</svg>