<svg width="443" height="48" viewBox="0 0 443 48" fill="none" xmlns="http://www.w3.org/2000/svg">
<mask id="mask0_4001_249" style="mask-type:luminance" maskUnits="userSpaceOnUse" x="375" y="0" width="68" height="24">
<path d="M375.51 0H442.015V23.5417H375.51V0Z" fill="white"/>
</mask>
<g mask="url(#mask0_4001_249)">
<path d="M408.614 0.411133H408.594L376.12 9.30176V22.4788L407.953 13.7601C408.37 13.6455 408.818 13.6455 409.234 13.7601L441.068 22.4788V9.30176L408.614 0.411133Z" fill="#000"/>
</g>
<mask id="mask1_4001_249" style="mask-type:luminance" maskUnits="userSpaceOnUse" x="375" y="24" width="67" height="24">
<path d="M375.51 24.875H441.844V47.0469H375.51V24.875Z" fill="white"/>
</mask>
<g mask="url(#mask1_4001_249)">
<path d="M408.614 24.9844H408.594L376.12 33.875V47.0521L407.953 38.3333C408.37 38.2187 408.818 38.2187 409.234 38.3333L441.068 47.0521V33.875L408.614 24.9844Z" fill="#000"/>
</g>
<path d="M36.0521 25.2917H17.4115V28.4271H32.1615V31.2969C32.1615 35.224 29.776 36.5625 25.8802 36.5625H10.651C6.91667 36.5625 3.89063 35.4635 3.89063 30.5104V19.8281C3.89063 14.875 6.91667 13.776 10.651 13.776H20.75C30.3698 13.776 32 14.1667 32 19.474H35.6563V18.4531C35.6563 11.8958 30.1354 10.6406 24.9688 10.6406H10.2552C2.46354 10.6406 0 14.0937 0 21.2813V29.0625C0 36.25 2.46354 39.7031 10.2552 39.7031H26.3177C33.5156 39.7031 36.0573 36.9583 36.0573 29.2188V25.2917H36.0521ZM45.3542 39.3906H49.2448V28.1563H68.2448C71.7865 28.1563 73.9688 28.7031 73.9688 33.1458V39.3906H77.625V32.125C77.625 29.5313 76.6719 27.4844 72.7031 26.7813V26.7031C75.6823 26.4323 77.9896 25.3333 77.9896 21.3229V19.0052C77.9896 13.6563 76.6771 10.9531 68.3698 10.9531H45.3594V39.3854L45.3542 39.3906ZM49.2448 25.0208V14.0938H66.974C72.7031 14.0938 74.0938 15.1146 74.0938 18.3021V20.8958C74.0938 23.8854 72.2604 25.026 67.9323 25.026H49.2448V25.0208ZM87.4844 39.3906H115.901V36.25H91.375V26.3073H114.786V23.1719H91.375V14.0938H115.74V10.9583H87.4844V39.3906ZM121.266 39.3906H125.682L129.255 33.3854H152.307L155.885 39.3906H160.292L143.203 10.9583H138.354L121.26 39.3906H121.266ZM150.443 30.2396H131.125L140.781 14.0885L150.432 30.2396H150.443ZM175.844 39.3906H179.729V14.0938H194.286V10.9583H161.292V14.0938H175.844V39.3906ZM201.432 39.3906H227.661V36.25H205.323V10.9531H201.432V39.3906ZM231.281 39.3906H235.693L239.266 33.3854H262.318L265.896 39.3906H270.302L253.214 10.9583H248.365L231.276 39.3906H231.281ZM260.458 30.2396H241.135L250.792 14.0885L260.448 30.2396H260.458ZM277.151 39.3906H281.042V14.4063L307.406 39.3906H313.208V10.9531H309.318V35.9427L282.953 10.9531H277.151V39.3906ZM354.661 26.7031C354.661 35.2292 351.401 36.25 346.667 36.25H326.906V14.0938H347.307C352.073 14.0938 354.661 15.5833 354.661 23.8021V26.7083V26.7031ZM323.016 39.3906L346.151 39.3958C355.932 39.3958 358.552 35.6302 358.552 25.1719C358.552 13.9323 355.932 10.9531 346.271 10.9531H323.016V39.3906Z" fill="#000"/>
</svg>
