<svg xmlns="http://www.w3.org/2000/svg" viewBox="0 0 186.66 54.4"><g data-name="Layer 2"><g data-name="Layer 1"><path d="M2.87 6.29A14.75 14.75 0 0 0 2.61 3c-.07-.19-.42-.37-1-.53a6.19 6.19 0 0 0-1.46-.23Q0 2.24 0 1.76a.81.81 0 0 1 .15-.58l4.41.18q.59 0 4.26-.18a1.68 1.68 0 0 1 .08.55q0 .51-.15.51a6.15 6.15 0 0 0-1.32.26c-.64.17-1 .34-1 .51a14.28 14.28 0 0 0-.33 3.42v14a14.28 14.28 0 0 0 .33 3.42c0 .17.39.34 1 .5a6.39 6.39 0 0 0 1.32.24c.1 0 .15.18.15.55a1.56 1.56 0 0 1-.08.51q-3.68-.18-4.26-.18l-4.41.18a.77.77 0 0 1-.15-.58q0-.51.15-.51a7.18 7.18 0 0 0 1.41-.22c.63-.15 1-.32 1-.52a14.58 14.58 0 0 0 .26-3.27zm19.26 3.12a3.75 3.75 0 0 1 3.6 1.84c.69 1.22 1 3.21 1 5.95v3.35a13.61 13.61 0 0 0 .3 3.27c0 .17.36.34 1 .5a5.66 5.66 0 0 0 1.25.24c.08 0 .12.14.15.44a1.55 1.55 0 0 1 0 .62l-3.93-.18-3.86.18a.87.87 0 0 1-.15-.6c0-.31.05-.46.15-.46a4.62 4.62 0 0 0 1.23-.24c.53-.16.81-.33.86-.5a10.65 10.65 0 0 0 .26-2.57v-3.68c0-2.28-.29-3.83-.88-4.67a3.27 3.27 0 0 0-2.87-1.25 3.57 3.57 0 0 0-2.26.87q-1.08.86-1.08 1.56v6.47a13.7 13.7 0 0 0 .29 3.27c.05.17.37.34 1 .5a5.46 5.46 0 0 0 1.25.24c.07 0 .12.14.14.44a1.42 1.42 0 0 1 0 .62l-3.94-.18-4 .18a.87.87 0 0 1-.15-.6c0-.31.05-.46.15-.46a5.41 5.41 0 0 0 1.3-.24c.58-.16.89-.33.94-.5a11.18 11.18 0 0 0 .12-2.57V14.3a3 3 0 0 0-.52-2 1.84 1.84 0 0 0-.9-.6 3.18 3.18 0 0 0-.88-.17c-.23 0-.35 0-.35-.07 0-.59.07-.89.22-.92a41.12 41.12 0 0 0 5.07-1h.19c.09 0 .16.1.18.31a1.71 1.71 0 0 1 0 .46a11.84 11.84 0 0 0-.15 1.47c0 .1 0 .15.08.15s.06 0 .11-.08a9.69 9.69 0 0 1 2.29-1.67 5.81 5.81 0 0 1 2.79-.77zm17.72-.07a5.91 5.91 0 0 1 2.76.62c.17 0 .25-.22.25-.66v-4a11.72 11.72 0 0 0-.22-2.3c-.12-.39-.74-.59-1.87-.59h-.33c-.15 0-.22-.14-.22-.41s.07-.58.22-.58c.73-.08 1.41-.17 2-.3A10.32 10.32 0 0 0 44 .73c.35-.12.65-.23.9-.34s.43-.21.55-.28l.1-.11h.07a.38.38 0 0 1 .29.2 1.16 1.16 0 0 1 .19.39a10.11 10.11 0 0 0-.41 3.2v16.54a14.38 14.38 0 0 0 .22 2.79.69.69 0 0 0 .41.41 2.08 2.08 0 0 0 .68.18 5.27 5.27 0 0 0 .68 0h.33c.07 0 .11.18.11.45s-.07.55-.22.55c-.37 0-.78.07-1.23.14l-1.29.24c-.4.09-.78.17-1.12.26l-.84.24-.34.07c-.14 0-.22-.21-.22-.62v-.44c0-.15 0-.2-.14-.15a8.13 8.13 0 0 1-3.9 1.14 6.75 6.75 0 0 1-5.11-2.17 7.28 7.28 0 0 1-2.06-5.18A8.91 8.91 0 0 1 34.17 12a7.61 7.61 0 0 1 5.68-2.66zm-.48 1.54A3.76 3.76 0 0 0 36 12.79a8.14 8.14 0 0 0-1.22 4.45 7.65 7.65 0 0 0 1.44 4.65 4.64 4.64 0 0 0 4 2 3 3 0 0 0 2-.57 1.88 1.88 0 0 0 .69-1.53V13a1.91 1.91 0 0 0-.91-1.44 4.23 4.23 0 0 0-2.63-.68zm15.81 9.67a14.25 14.25 0 0 0 .29 3.27c.05.17.37.34 1 .5a5.56 5.56 0 0 0 1.25.24c.07 0 .12.14.15.44a1.55 1.55 0 0 1 0 .62l-3.93-.18-4 .18a.87.87 0 0 1-.15-.6c0-.31 0-.46.15-.46a5.33 5.33 0 0 0 1.3-.24c.58-.16.89-.33.94-.5a11.18 11.18 0 0 0 .26-2.57V14.3a2.9 2.9 0 0 0-.52-2 1.84 1.84 0 0 0-.9-.6 3.12 3.12 0 0 0-.88-.17c-.23 0-.35 0-.35-.07 0-.59.07-.89.22-.92a41.84 41.84 0 0 0 5.08-1h.18c.1 0 .16.1.18.31a1.15 1.15 0 0 1 0 .46a22 22 0 0 0-.27 2.69zM67 9.48a3.76 3.76 0 0 1 2.9 1 4.6 4.6 0 0 1 .88 3.14v8.49a2 2 0 0 0 .41 1.29 1.32 1.32 0 0 0 1.1.51 2.55 2.55 0 0 0 1.29-.51c.09 0 .14.1.14.29a1.5 1.5 0 0 1-.18.78A4.38 4.38 0 0 1 71 25.73a2.36 2.36 0 0 1-1.62-.7 3.79 3.79 0 0 1-1.07-1.47 1.33 1.33 0 0 0-.27.24 5.92 5.92 0 0 1-.65.55c-.27.21-.58.43-.93.65a5.75 5.75 0 0 1-1.25.55 4.88 4.88 0 0 1-1.46.22 4.29 4.29 0 0 1-2.79-.9 3.26 3.26 0 0 1-1.1-2.7 3.07 3.07 0 0 1 .4-1.53 4.2 4.2 0 0 1 1-1.18 8.59 8.59 0 0 1 1.5-.93 15.11 15.11 0 0 1 1.64-.72l1.78-.61c.74-.24 1.25-.42 1.55-.55s.33-.25.33-.55v-2.76a2.3 2.3 0 0 0-.74-1.82 2.63 2.63 0 0 0-1.76-.64 2.47 2.47 0 0 0-1.84.75 2.71 2.71 0 0 0-.73 2c0 .86-.51 1.29-1.51 1.29a1.52 1.52 0 0 1-1.44-.7c0-1 .78-2.1 2.32-3.14A8.35 8.35 0 0 1 67 9.48zm-3.44 13.66a2.4 2.4 0 0 0 1.62.53 3.44 3.44 0 0 0 1.91-.6c.61-.41.92-.82.92-1.23v-3.79a13 13 0 0 1-1.44.51c-.76.25-1.35.46-1.78.65a3.79 3.79 0 0 0-1.25.92 2.11 2.11 0 0 0-.6 1.49 1.86 1.86 0 0 0 .62 1.52zm42.13-4.36a23.57 23.57 0 0 1-.52 2.82 7.82 7.82 0 0 1-.73 2.52q-2.68 1.61-8.79 1.61a11 11 0 0 1-8.25-3.56 11.88 11.88 0 0 1-3.4-8.5 12.65 12.65 0 0 1 3.49-8.95A11.32 11.32 0 0 1 96.06 1a45.67 45.67 0 0 1 8.93.92c0 3.29-.07 5.05-.07 5.3s-.26.55-.77.55c-.25 0-.41-.06-.48-.19-.08-.32-.17-.64-.28-1a5.67 5.67 0 0 0-.7-1.29A5.71 5.71 0 0 0 101.41 4a7 7 0 0 0-2.14-1 10.62 10.62 0 0 0-3.1-.42A7.62 7.62 0 0 0 90 5.72a11.22 11.22 0 0 0-2.54 7.18 14.19 14.19 0 0 0 1 5.48 9.61 9.61 0 0 0 3.25 4.14 8.7 8.7 0 0 0 5.28 1.63 7.29 7.29 0 0 0 5.68-2.15 4.94 4.94 0 0 0 .91-1.45c.25-.6.45-1.11.58-1.51s.24-.61.32-.61a2.44 2.44 0 0 1 .53.08l.5.14zm9.41-9.3a3.73 3.73 0 0 1 2.9 1 4.6 4.6 0 0 1 .89 3.14v8.49a2 2 0 0 0 .4 1.29 1.33 1.33 0 0 0 1.1.51 2.49 2.49 0 0 0 1.29-.51c.1 0 .15.1.15.29a1.41 1.41 0 0 1-.19.78 4.35 4.35 0 0 1-2.57 1.28 2.4 2.4 0 0 1-1.62-.7 3.76 3.76 0 0 1-1.06-1.47s-.12.08-.28.24a5.69 5.69 0 0 1-.64.55c-.27.21-.59.43-.94.65a5.54 5.54 0 0 1-1.25.55 4.81 4.81 0 0 1-1.45.22 4.3 4.3 0 0 1-2.8-.9 3.29 3.29 0 0 1-1.1-2.7 3.08 3.08 0 0 1 .41-1.53 4 4 0 0 1 1-1.18 8.35 8.35 0 0 1 1.51-.93 15.07 15.07 0 0 1 1.63-.72l1.79-.61c.73-.24 1.25-.42 1.54-.55s.33-.25.33-.55v-2.78a2.29 2.29 0 0 0-.73-1.82 2.64 2.64 0 0 0-1.77-.64 2.48 2.48 0 0 0-1.84.75 2.71 2.71 0 0 0-.73 2c0 .86-.5 1.29-1.51 1.29a1.51 1.51 0 0 1-1.43-.7c0-1 .77-2.1 2.31-3.14a8.39 8.39 0 0 1 4.66-1.6zm-3.46 13.66a2.4 2.4 0 0 0 1.62.53 3.44 3.44 0 0 0 1.91-.6c.62-.41.92-.82.92-1.23v-3.79a11.83 11.83 0 0 1-1.43.51c-.76.25-1.36.46-1.78.65a3.69 3.69 0 0 0-1.25.92 2.08 2.08 0 0 0-.61 1.49 1.9 1.9 0 0 0 .62 1.52zm20.3-13.66a6.77 6.77 0 0 1 5.51 2.38 7.76 7.76 0 0 1 2 5.05 8.93 8.93 0 0 1-2.45 6.21 7.42 7.42 0 0 1-5.58 2.69h-1a4.85 4.85 0 0 1-.75-.13l-.52-.16-.47-.21-.37-.16a.73.73 0 0 0-.15.48v3.16a14.25 14.25 0 0 0 .29 3.27c.05.17.37.34 1 .5a6 6 0 0 0 1.25.23c.07 0 .12.16.15.46a1.41 1.41 0 0 1 0 .61l-3.93-.18-4 .18a.88.88 0 0 1-.15-.61c0-.3 0-.46.15-.46a5.72 5.72 0 0 0 1.3-.23c.58-.16.89-.33.94-.5a11.18 11.18 0 0 0 .26-2.57V14.26a2.94 2.94 0 0 0-.51-2 1.87 1.87 0 0 0-.91-.61 3 3 0 0 0-.88-.16c-.23 0-.35 0-.35-.08 0-.59.08-.89.22-.92a44.79 44.79 0 0 0 5.01-.93h.18c.07 0 .11.07.11.2a3.31 3.31 0 0 1 0 .5v.55a8.49 8.49 0 0 1 1.71-.83 6 6 0 0 1 1.94-.5zm-1.18 1.81a2.85 2.85 0 0 0-1.87.6 2.15 2.15 0 0 0-.74 1.75v8.27a2 2 0 0 0 1.07 1.67 4.16 4.16 0 0 0 2.31.68 4 4 0 0 0 3.46-2 7.7 7.7 0 0 0 1.28-4.37 6.93 6.93 0 0 0-1.63-4.87 5.1 5.1 0 0 0-3.88-1.73zm16.73 9.26a13.7 13.7 0 0 0 .29 3.27c.05.17.37.34 1 .5a5.46 5.46 0 0 0 1.25.24c.07 0 .12.14.14.44a1.42 1.42 0 0 1 0 .62l-3.94-.18-4 .18A.87.87 0 0 1 142 25c0-.31.05-.46.15-.46a5.33 5.33 0 0 0 1.3-.24c.58-.16.89-.33.94-.5a11.18 11.18 0 0 0 .26-2.57V14.3a3 3 0 0 0-.52-2 1.84 1.84 0 0 0-.9-.6 3.12 3.12 0 0 0-.88-.17c-.23 0-.35 0-.35-.07 0-.59.07-.89.22-.92a41.12 41.12 0 0 0 5.07-1h.19c.09 0 .16.1.18.31a1.71 1.71 0 0 1 0 .46a22 22 0 0 0-.18 2.65zm6.17-8.79h-2.13c-.12 0-.18-.25-.18-.77a.61.61 0 0 1 0-.26 6.94 6.94 0 0 0 2.32-1.94 9.91 9.91 0 0 0 .79-1.09c.26-.4.47-.75.64-1a4.28 4.28 0 0 0 .26-.47c.74 0 1.1.06 1.1.18V10h4.97c.19 0 .29.11.29.33a3 3 0 0 1-.37 1.39h-4.89v9a3.46 3.46 0 0 0 .76 2.35 2.44 2.44 0 0 0 2 .88 4.48 4.48 0 0 0 2.28-.69c.08 0 .19.05.33.31s.21.4.19.42a6.08 6.08 0 0 1-1.69 1.16 5.23 5.23 0 0 1-2.36.57 4.2 4.2 0 0 1-3.07-1.21 4.64 4.64 0 0 1-1.23-3.46zm17.21-2.28a3.76 3.76 0 0 1 2.9 1 4.6 4.6 0 0 1 .88 3.14v8.49a2 2 0 0 0 .41 1.29 1.32 1.32 0 0 0 1.1.51 2.55 2.55 0 0 0 1.29-.51c.09 0 .14.1.14.29a1.5 1.5 0 0 1-.18.78 4.35 4.35 0 0 1-2.57 1.28 2.36 2.36 0 0 1-1.62-.7 3.9 3.9 0 0 1-1.07-1.47 1.33 1.33 0 0 0-.27.24 5.92 5.92 0 0 1-.65.55c-.27.21-.58.43-.93.65a5.75 5.75 0 0 1-1.25.55 4.86 4.86 0 0 1-1.45.22 4.3 4.3 0 0 1-2.8-.9 3.29 3.29 0 0 1-1.1-2.7 3.07 3.07 0 0 1 .4-1.53 4.2 4.2 0 0 1 1-1.18 8.35 8.35 0 0 1 1.51-.93 14.26 14.26 0 0 1 1.63-.72l1.76-.63c.74-.24 1.25-.42 1.55-.55s.33-.25.33-.55v-2.76a2.3 2.3 0 0 0-.74-1.82 2.61 2.61 0 0 0-1.76-.64 2.47 2.47 0 0 0-1.84.75 2.71 2.71 0 0 0-.73 2c0 .86-.51 1.29-1.51 1.29a1.49 1.49 0 0 1-1.43-.7c0-1 .77-2.1 2.31-3.14a8.37 8.37 0 0 1 4.69-1.6zm-3.46 13.66a2.4 2.4 0 0 0 1.62.53 3.44 3.44 0 0 0 1.91-.6c.61-.41.92-.82.92-1.23v-3.79a12.57 12.57 0 0 1-1.43.51c-.76.25-1.36.46-1.79.65a3.79 3.79 0 0 0-1.25.92 2.11 2.11 0 0 0-.6 1.49 1.86 1.86 0 0 0 .62 1.52zM181 21.25V5.33a11.72 11.72 0 0 0-.21-2.33c-.12-.39-.75-.59-1.87-.59h-.33c-.15 0-.22-.14-.22-.41s.07-.58.22-.58c.73-.08 1.41-.17 2-.3a10.32 10.32 0 0 0 1.51-.39c.35-.12.65-.23.9-.34s.43-.21.55-.28l.15-.11h.07a.38.38 0 0 1 .29.2 1.16 1.16 0 0 1 .19.39a10.11 10.11 0 0 0-.41 3.2v16.76a13.61 13.61 0 0 0 .3 3.27c.05.17.37.34 1 .5a5.66 5.66 0 0 0 1.25.24c.08 0 .13.14.15.44a1.38 1.38 0 0 1 0 .62l-3.93-.18-4 .18a.94.94 0 0 1-.14-.6c0-.31 0-.46.14-.46a5.39 5.39 0 0 0 1.31-.24c.57-.16.89-.33.94-.5a11.23 11.23 0 0 0 .14-2.57z" fill="#000"/><path d="M10.85 47.68h.91v4.89a5.71 5.71 0 0 1-2.08 1.24 7.59 7.59 0 0 1-2.58.43 7.1 7.1 0 0 1-3.49-.85A6.39 6.39 0 0 1 1.17 51a6.9 6.9 0 0 1 0-6.78 6.25 6.25 0 0 1 2.44-2.37A7.13 7.13 0 0 1 7.12 41a7.29 7.29 0 0 1 2.64.46 5.72 5.72 0 0 1 2.06 1.33l-.6.63a5 5 0 0 0-1.84-1.18 6.62 6.62 0 0 0-2.24-.36 6.24 6.24 0 0 0-3 .74A5.52 5.52 0 0 0 2 44.69a5.75 5.75 0 0 0-.76 2.94A5.65 5.65 0 0 0 2 50.54a5.55 5.55 0 0 0 2.12 2.07 6 6 0 0 0 3 .76 5.7 5.7 0 0 0 3.71-1.2zm17.87 6.47l-3.11-4.36a10 10 0 0 1-1.27.09h-3.73v4.27h-.95v-13h4.68a5.85 5.85 0 0 1 3.86 1.17 4 4 0 0 1 1.39 3.23 4 4 0 0 1-3.05 4.08l3.26 4.57zM24.34 49a4.79 4.79 0 0 0 3.18-.92 3.67 3.67 0 0 0 0-5.24 4.84 4.84 0 0 0-3.18-.84h-3.73v7zm14.53 4.38A6.39 6.39 0 0 1 36.44 51a6.91 6.91 0 0 1 0-6.75 6.43 6.43 0 0 1 2.43-2.37 7 7 0 0 1 3.47-.88 7.08 7.08 0 0 1 3.47.86 6.29 6.29 0 0 1 2.43 2.37 7 7 0 0 1 0 6.78 6.43 6.43 0 0 1-2.43 2.37 7.47 7.47 0 0 1-6.94 0zm6.43-.76a5.51 5.51 0 0 0 2.09-2.06 5.69 5.69 0 0 0 .76-2.93 5.75 5.75 0 0 0-.76-2.94 5.58 5.58 0 0 0-2.09-2.06 6.31 6.31 0 0 0-5.93 0 5.54 5.54 0 0 0-2.1 2.06 5.75 5.75 0 0 0-.76 2.94 5.69 5.69 0 0 0 .76 2.93 5.47 5.47 0 0 0 2.1 2.06 6.24 6.24 0 0 0 5.93 0zM73.2 41.1l-4.42 13h-1l-4.05-11.7-4.06 11.7h-1l-4.43-13h1l4 11.74 4.04-11.74h.92l4.06 11.76 4-11.76zm9.19.9h-4.7v-.9H88v.9h-4.66v12.15h-1zm22.34-.9v13h-1v-6.16h-8.67v6.21h-1v-13h1v6h8.72v-6zm17.74.9v5.57h6.95v.86h-6.95v5.76h-1v-13h8.72V42zm15.79 10.81a5.88 5.88 0 0 1-1.37-4.2V41.1h1v7.48a5.14 5.14 0 0 0 1.1 3.59 4.81 4.81 0 0 0 6.36 0 5.14 5.14 0 0 0 1.1-3.59V41.1h.95v7.51a5.84 5.84 0 0 1-1.38 4.2 5.91 5.91 0 0 1-7.71 0zm27.87-11.71v13h-.78l-8.89-11.33v11.38h-1v-13h.8l8.87 11.34V41.1zm8.27 0h5.17a7.53 7.53 0 0 1 3.6.84 6.16 6.16 0 0 1 2.45 2.32 6.87 6.87 0 0 1 0 6.73 6.09 6.09 0 0 1-2.45 2.32 7.53 7.53 0 0 1-3.6.84h-5.17zm5.09 12.19a6.79 6.79 0 0 0 3.19-.72 5 5 0 0 0 2.12-2 6.16 6.16 0 0 0 0-5.89 5.12 5.12 0 0 0-2.12-2 6.79 6.79 0 0 0-3.19-.72h-4.14v11.33z" fill="#000" stroke="#000" stroke-miterlimit="10" stroke-width=".314"/><circle cx="145.49" cy="3.71" r="1.94" fill="#000"/><circle cx="53.75" cy="3.74" r="1.94" fill="#000"/></g></g></svg>
