<svg xmlns="http://www.w3.org/2000/svg" viewBox="0 0 159.995 88.59"><g><path fill="#000" d="M62.846 54.923l13.876-8.009V22.147L38.359 0 24.483 8.012l38.363 22.147z"></path><path fill="#000" d="M16.916 60.186v16.021l21.443 12.384 38.363-22.147V50.419L38.359 72.566z"></path><path fill="#000" d="M21.447 9.767L0 22.147v44.3l13.876 8.01v-44.3l21.448-12.381z"></path><path d="M80.867 28.386c0-3.883 1.8-6.016 5.536-6.016s5.532 2.133 5.532 6.016v18.978c0 3.883-1.844 5.973-5.532 5.973s-5.536-2.09-5.536-5.973zm7.813.1c0-1.7-.488-2.668-2.281-2.668s-2.281.969-2.281 2.668v18.878c0 1.7.484 2.574 2.281 2.574s2.281-.922 2.281-2.668zm7.376 24.416V22.854h2.817a16.409 16.409 0 01.145 2.184 3.779 3.779 0 013.641-2.477 2.016 2.016 0 011.02.2V26.5a2.887 2.887 0 00-1.52-.32 2.848 2.848 0 00-2.77 1.8v24.939zm11.169-24.514c0-3.883 1.8-6.016 5.532-6.016s5.536 2.133 5.536 6.016v18.976c0 3.883-1.844 5.973-5.536 5.973s-5.532-2.09-5.532-5.973zm7.813.1c0-1.7-.484-2.668-2.281-2.668s-2.281.969-2.281 2.668v18.876c0 1.7.488 2.574 2.281 2.574s2.281-.922 2.281-2.668zm14.611 15.728a4.821 4.821 0 00-1.453-3.516c-1.359-1.6-3.254-3.125-4.469-4.512s-1.56-2.626-1.56-4.954v-3.1c0-4.223 1.844-5.774 5.469-5.774 3.942.016 5.192 1.809 5.192 5.774v4.918h-3.061v-4.924a2.209 2.209 0 00-2.281-2.426c-1.356 0-2.086.84-2.086 2.426v3.543a3.708 3.708 0 001.36 3.157c1.563 1.6 3.059 2.621 4.321 4.079 1.5 1.746 1.895 3.153 1.895 5.727v3.25c0 3.785-1.848 5.438-5.391 5.438-3.688 0-5.434-1.75-5.434-5.583v-4.887h3.008v4.809a2.222 2.222 0 002.344 2.426c1.422 0 2.133-.824 2.133-2.426zm15.576 8.688c-.047-.727-.094-1.406-.094-2.184a4.739 4.739 0 01-4.274 2.524c-2.571 0-3.883-1.746-3.883-5.192V22.854h3.352v24.659c0 1.793.531 2.426 1.844 2.426a2.664 2.664 0 002.571-1.8V22.854h3.321V52.9zm7.153 0v-30.05h2.813a16.406 16.406 0 01.148 2.184 3.775 3.775 0 013.637-2.477 2.016 2.016 0 011.02.2V26.5a3.149 3.149 0 00-4.27 1.457V52.9zm-71.511 3.32v10.044h74.843V56.224zm10.907 8.044h-1.051v-1.785c0-.867 0-1.684.027-2.551l-1.317 4.336h-.992l-1.323-4.334c0 .867.027 1.684.027 2.551v1.785H86.11v-5.9h1.512l1.289 4.61 1.289-4.61h1.567zm9.657 0h-1.125v-5.9h1.125zm13.45 0h-1.129l-2.1-4.3v4.309h-.977v-5.9h1.348l1.863 4.325v-4.34h.969zm10.384 0h-1.128v-5.9h1.13zm13.45 0h-1.128l-2.1-4.3v4.309h-.981v-5.9h1.352l1.863 4.325v-4.34h.965zm11.751.035h-.176l-.391-.32a2.406 2.406 0 01-1.481.352c-1.055 0-1.836-.254-1.836-1v-4.021c0-.656.621-1.008 1.922-1.008s1.852.352 1.852 1.008v1.04h-1v-1.04c0-.3-.238-.457-.848-.457s-.781.152-.781.457v4.02c0 .309.324.465.781.465.531 0 .828-.145.871-.422v-1.343h-.926v-.516h2.014z" fill="#000"></path></g></svg>
