<svg version="1.1" xmlns="http://www.w3.org/2000/svg" x="0" y="0" viewBox="0 0 195 75" xml:space="preserve"><path d="M51.2 25l-9.9 9.3c-1.5 1.4-4 .6-4.4-1.4L34 18.6c-.4-2 1.6-3.8 3.6-3l12.8 4.8c1.7.8 2.2 3.2.8 4.6zM28.4 10.5l3.1 13.3c.5 2-1.5 3.8-3.5 3.1l-13.7-4.6c-2-.7-2.5-3.3-.8-4.6l10.6-8.6c1.5-1.3 3.8-.5 4.3 1.4zm-24 12.6l13 4c2 .6 2.5 3.2 1 4.6L7.6 41.1c-1.6 1.4-4 .5-4.4-1.6L1 26.1c-.2-2 1.5-3.6 3.4-3zm-1 27l10-9.4c1.5-1.4 4-.6 4.4 1.4l2.8 14.2c.4 2-1.6 3.8-3.6 3L4.2 54.5c-1.8-.8-2.3-3.1-.8-4.4zm22.8 14.4L23 51.2c-.5-2 1.5-3.8 3.5-3.1l13.7 4.6c2 .7 2.5 3.3.8 4.6l-10.6 8.6c-1.5 1.3-3.8.5-4.2-1.4zM50.1 52l-13-4c-2-.6-2.5-3.2-1-4.6L47 33.9c1.6-1.4 4-.5 4.4 1.6L53.5 49c.3 1.9-1.5 3.5-3.4 3zm13.5-11.2c-.2 0-.4-.1-.5-.2s-.2-.3-.2-.5V21.2c0-.2.1-.4.2-.5.1-.1.3-.2.5-.2h7.7c2.4 0 4.3.5 5.7 1.6 1.4 1.1 2.1 2.7 2.1 4.8 0 1.4-.3 2.6-1 3.6s-1.6 1.6-2.7 2.1l4.1 7.2c.1.1.1.2.1.3s-.1.3-.2.4c-.1.1-.3.2-.4.2h-3.2c-.3 0-.6-.1-.8-.3-.2-.2-.3-.3-.4-.5L71 33.3h-3.5V40c0 .2-.1.4-.2.5-.1.1-.3.2-.5.2l-3.2.1zm3.9-11.1h3.7c1.1 0 1.8-.3 2.4-.8.5-.5.8-1.2.8-2s-.3-1.6-.8-2c-.5-.5-1.3-.8-2.4-.8h-3.7v5.6zm14 11.1c-.2 0-.3-.1-.4-.2-.1-.1-.2-.3-.2-.4v-.3l6.9-18.6c.1-.2.2-.4.3-.5.2-.1.4-.2.8-.2h3.7c.3 0 .5.1.8.2.2.1.3.3.3.5l6.9 18.6v.3c0 .2-.1.3-.2.4-.1.1-.3.2-.4.2h-3c-.3 0-.5-.1-.6-.2-.1-.1-.2-.3-.3-.4l-1.2-3.3h-8.2l-1.2 3.3c-.1.1-.1.3-.3.4-.1.1-.3.2-.6.2h-3.1zm6.2-7.6h6l-3-8.3-3 8.3zm16.1 7.6c-.2 0-.4-.1-.5-.2-.1-.1-.2-.3-.2-.5V21.2c0-.2.1-.4.2-.5.1-.1.3-.2.5-.2h3.3c.2 0 .4.1.5.2.1.1.2.3.2.5V40c0 .2-.1.4-.2.5-.1.1-.3.2-.5.2h-3.3zm9 0c-.2 0-.4-.1-.5-.2-.1-.1-.2-.3-.2-.5V21.2c0-.2.1-.4.2-.5.1-.1.3-.2.5-.2h2.7c.3 0 .5.1.6.2.1.1.2.3.3.3l7.7 12.1V21.2c0-.2.1-.4.2-.5.1-.1.3-.2.5-.2h2.9c.2 0 .4.1.5.2.1.1.2.3.2.5V40c0 .2-.1.3-.2.5-.1.1-.3.2-.5.2H125c-.3 0-.5-.1-.6-.2-.1-.1-.2-.3-.3-.3l-7.7-11.7V40c0 .2-.1.4-.2.5-.1.1-.3.2-.5.2l-2.9.1zm20.7 0c-.2 0-.4-.1-.5-.2-.1-.1-.2-.3-.2-.5V21.2c0-.2.1-.4.2-.5.1-.1.3-.2.5-.2h8.6c1.6 0 2.9.2 4 .7 1 .5 1.8 1.1 2.3 2 .5.8.8 1.8.8 3 0 .7-.1 1.4-.4 1.9-.3.5-.5 1-1 1.4-.4.3-.8.6-1.1.8.8.3 1.4 1 2 1.7.5.8.9 1.8.9 2.9 0 1.2-.3 2.3-.8 3.2-.5 1-1.4 1.6-2.4 2.1-1.1.5-2.4.8-3.9.8h-9zm3.9-12.1h4.2c.9 0 1.6-.2 2-.7.5-.5.7-1 .7-1.8 0-.7-.2-1.3-.7-1.7-.5-.4-1.2-.7-2-.7h-4.2v4.9zm0 8.7h4.4c1 0 1.6-.3 2.1-.8s.8-1.2.8-1.9-.3-1.4-.8-1.9-1.2-.8-2.1-.8h-4.4v5.4zm23.7 3.7c-1.8 0-3.3-.3-4.6-.9-1.3-.5-2.3-1.4-3-2.6-.7-1.2-1.1-2.7-1.2-4.4v-5c.1-1.8.5-3.2 1.2-4.4s1.7-2.1 3-2.7c1.3-.6 2.8-.9 4.5-.9 1.7 0 3.2.3 4.5.9 1.3.6 2.3 1.5 3 2.7.8 1.2 1.1 2.7 1.2 4.4.1.8.1 1.7.1 2.5s0 1.6-.1 2.5c-.1 1.8-.5 3.3-1.2 4.4s-1.7 2-3 2.6c-1.1.6-2.6.9-4.4.9zm0-3.8c1.1 0 2-.3 2.8-1 .8-.7 1.1-1.8 1.2-3.3.1-.8.1-1.6.1-2.4s0-1.5-.1-2.4c0-1-.2-1.8-.5-2.5-.3-.6-.8-1.1-1.4-1.4-.5-.3-1.2-.5-2-.5s-1.4.1-2 .5c-.5.3-1 .8-1.4 1.4-.3.6-.5 1.4-.5 2.5V33c.1 1.5.5 2.6 1.2 3.3.5.7 1.4 1 2.6 1zm15.4 3.5c-.3 0-.5-.1-.8-.3-.2-.2-.3-.4-.3-.6l-3.3-18.6v-.2c0-.1.1-.3.2-.4.1-.1.3-.2.4-.2h3.1c.5 0 .8.2.8.6l2.2 12.3 2.3-7.7c.1-.1.1-.3.3-.5.1-.2.3-.3.7-.3h1.8c.3 0 .5.1.7.3.1.2.2.3.3.5l2.4 7.6 2.1-12.2c.1-.4.3-.6.9-.6h3.1c.2 0 .3.1.4.2.1.1.2.3.2.4v.2l-3.3 18.6c-.1.3-.1.5-.3.6-.2.2-.4.3-.8.3h-2.3c-.3 0-.5-.1-.7-.3-.1-.1-.3-.3-.3-.5l-3.1-9-3.1 9c-.1.2-.1.3-.3.5-.1.1-.4.3-.8.3h-2.5zM62.9 52.1l-.1-.1v-6.8c0-.1 0-.1.1-.2l.1-.1h2.5c.8 0 1.4.2 1.8.5.5.3.7.9.7 1.6 0 .5-.1 1-.4 1.3-.3.3-.6.5-1.1.7l1.6 2.7v.1c0 .1 0 .1-.1.1v.2h-.5c-.1 0-.2 0-.3-.1-.1-.1-.1-.1-.1-.2l-1.5-2.6h-1.8v2.7c0 .1 0 .1-.1.1s-.1.1-.2.1h-.6c.2.1.1 0 0 0zm2.7-3.7c1 0 1.5-.4 1.5-1.3s-.5-1.3-1.5-1.3h-1.7v2.6h1.7zm3.3 3.7l-.1-.1v-.1l2.5-6.6c.1-.1.1-.2.3-.2h.7c.1 0 .3.1.3.2l2.5 6.6v.1c0 .1 0 .1-.1.1l-.1.1h-.5c-.1 0-.1 0-.2-.1s0-.1 0-.1l-.5-1.4h-3.3l-.7 1.4c0 .1-.1.1-.1.1l-.1.1H69c-.1 0-.1-.1-.1-.1zm4.5-2.5L72.1 46l-1.4 3.6h2.7zm2.9 2.5l-.1-.1v-6.8c0-.1 0-.1.1-.2l.1-.1H79c.8 0 1.4.2 1.8.5.5.3.7.9.7 1.6 0 .5-.1 1-.4 1.3-.3.3-.6.5-1.1.7l1.6 2.7v.1c0 .1 0 .1-.1.1l-.1.1h-.5c-.1 0-.2 0-.3-.1-.1-.1-.1-.1-.1-.2L79 49.2h-1.8v2.7c0 .1 0 .1-.1.1s-.1.1-.2.1h-.6c.1.1.1 0 0 0zm2.7-3.7c1 0 1.5-.4 1.5-1.3s-.5-1.3-1.5-1.3h-1.7v2.6H79zm3.9 3.7v-6.9c0-.1 0-.1.1-.2l.1-.1h4.2c.1 0 .1 0 .1.1.1.1.1.1.1.2v.4c0 .1 0 .1-.1.1-.1.1-.1.1-.2.1h-3.5v2.3H87c.1 0 .1 0 .1.1.1.1.1.1.1.2v.4c0 .1 0 .1-.1.1 0 .1 0 .1-.1.1h-3.3v2.3h3.6c.1 0 .1 0 .2.1s.1.1.1.2v.4c0 .1 0 .1-.1.1s-.1.1-.1.1h-4.3c-.1 0-.1-.1-.2-.1zm8.6 0l-.1-.1v-6.8c0-.1 0-.1.1-.2l.1-.1h4.2c.1 0 .1 0 .1.1.1.1.1.1.1.2v.4c0 .1 0 .1-.1.1-.1.1-.1.1-.2.1h-3.5v2.3h3.3c.1 0 .1 0 .1.1.1.1.1.1.1.2v.4c0 .1 0 .1-.1.1v.1h-3.3v2.3h3.6c.1 0 .1 0 .2.1s.1.1.1.2v.4c0 .1 0 .1-.1.1s-.1.1-.1.1h-4.3c-.2 0-.2-.1-.2-.1zm5.4 0l-.1-.1v-.1l2.5-6.6c.1-.1.1-.2.3-.2h.7c.1 0 .3.1.3.2l2.5 6.6v.1c0 .1 0 .1-.1.1l-.1.1h-.5c-.1 0-.1 0-.2-.1l-.1-.1-.5-1.4h-3.3l-.5 1.4c0 .1-.1.1-.1.1l-.1.1H97c-.1 0-.1-.1-.1-.1zm4.5-2.5L100 46l-1.4 3.6h2.8zm2.9 2.5l-.1-.1v-6.8c0-.1 0-.1.1-.2l.1-.1h2.5c.8 0 1.4.2 1.8.5.5.3.7.9.7 1.6 0 .5-.1 1-.4 1.3-.3.3-.6.5-1.1.7l1.6 2.7v.1c0 .1 0 .1-.1.1l-.1.1h-.5c-.1 0-.2 0-.3-.1-.1-.1-.1-.1-.1-.2l-1.5-2.6h-1.8v2.7c0 .1 0 .1-.1.1-.1.1-.1.1-.2.1l-.5.1c.1.1.1 0 0 0zm2.6-3.7c1 0 1.5-.4 1.5-1.3s-.5-1.3-1.5-1.3h-1.7v2.6h1.7zm5.5 3.7l-.1-.1v-6.1h-1.9c-.1 0-.1 0-.1-.1s-.1-.1-.1-.1v-.5c0-.1 0-.1.1-.2l.1-.1h4.9c.1 0 .1 0 .2.1s.1.1.1.2v.4c0 .1 0 .1-.1.1s-.1.1-.2.1h-2v6c0 .1 0 .1-.1.1-.1.1-.1.1-.2.1h-.5c0 .2-.1.1-.1.1zm4.3 0l-.1-.1v-6.8c0-.1 0-.1.1-.2l.1-.1h.5c.1 0 .1 0 .2.1s.1.1.1.2V48h3.6v-2.8c0-.1 0-.1.1-.2l.1-.1h.5c.1 0 .1 0 .2.1s.1.1.1.2v6.7c0 .1 0 .1-.1.1-.1.1-.1.1-.2.1h-.5c-.1 0-.1 0-.1-.1l-.1-.1V49h-3.6v2.9c0 .1 0 .1-.1.1-.1.1-.1.1-.2.1h-.5c-.1.1-.1 0-.1 0zm8-.1c-.4-.2-.8-.4-1-.7-.2-.3-.3-.6-.3-1 0-.1 0-.1.1-.1l.1-.1h.5c.1 0 .2.1.3.2.1.3.2.5.5.8.3.2.7.3 1.2.3s1-.1 1.3-.3c.3-.2.4-.5.4-.8 0-.2-.1-.4-.2-.5s-.3-.3-.6-.4c-.3-.1-.7-.3-1.2-.4-.5-.1-1-.3-1.3-.5-.3-.1-.5-.4-.7-.6-.1-.3-.2-.5-.2-1 0-.3.1-.7.3-1 .2-.3.5-.5.9-.7.3-.1.8-.3 1.4-.3.5 0 1 .1 1.4.3.4.2.7.4.9.7.2.3.3.5.3.9 0 .1 0 .1-.1.1l-.1.1h-.6c-.1 0-.2-.1-.3-.2-.1-.3-.2-.5-.5-.7-.3-.2-.6-.3-1-.3-.5 0-.8.1-1.1.3-.3.2-.4.4-.4.8 0 .2.1.4.2.5.1.1.3.3.5.4s.6.3 1.2.4c.5.1 1 .3 1.4.5.3.1.6.3.8.6s.3.5.3 1c0 .6-.3 1.2-.8 1.5-.5.3-1.2.5-2 .5-.7-.1-1.2-.1-1.6-.3z" fill="#000"/></svg>
