<svg width="412" height="78" viewBox="0 0 412 78" fill="none" xmlns="http://www.w3.org/2000/svg">
<path d="M23.755 1.08472C30.3892 1.08472 35.472 2.77956 39.003 5.74342C42.561 8.68084 44.34 12.8356 44.34 18.2076C44.34 22.7858 42.8152 26.5302 39.7654 29.4412C36.7158 32.3522 32.5026 34.0722 27.1256 34.6016L44.4202 56.8702H30.8574L14.4857 34.7604H11.1953V56.8702H0V1.08472H23.755ZM11.1953 11.4992V25.1144H23.5544C29.7338 25.1144 32.8236 22.8122 32.8236 18.2076C32.8236 13.7353 29.7338 11.4992 23.5544 11.4992H11.1953Z" fill="black"/>
<path d="M66.7871 17.3739C72.3781 17.3739 76.9257 19.2528 80.4301 23.0105C83.9345 26.7419 85.6867 31.5979 85.6867 37.5785C85.6867 38.9017 85.6199 40.0661 85.4861 41.0717H57.9191C58.4275 43.7445 59.5643 45.7425 61.3299 47.0655C63.1223 48.3887 65.3159 49.0503 67.9107 49.0503C71.5221 49.0503 74.7991 47.8197 77.7417 45.3587L83.8811 52.0275C79.5475 55.9175 74.0233 57.8625 67.3087 57.8625C61.3433 57.8625 56.4879 56.0101 52.7429 52.3053C48.9977 48.6005 47.1251 43.7445 47.1251 37.7373C47.1251 31.7037 48.9441 26.8081 52.5823 23.0503C56.2205 19.266 60.9553 17.3739 66.7871 17.3739ZM66.7069 26.3053C64.2725 26.3053 62.3197 26.9801 60.8483 28.3297C59.4039 29.6529 58.4407 31.5449 57.9593 34.0061H75.1737C74.6921 31.5185 73.7291 29.6131 72.2845 28.2899C70.8399 26.9667 68.9807 26.3053 66.7069 26.3053Z" fill="black"/>
<path d="M119.614 27.6151H105.53V41.6671C105.53 43.9165 106.065 45.5705 107.135 46.6289C108.205 47.6875 109.609 48.2167 111.348 48.2167C113.435 48.2167 115.869 47.3831 118.651 45.7159L122.503 53.8137C118.571 56.5129 114.278 57.8625 109.623 57.8625C104.808 57.8625 101.17 56.5659 98.7085 53.9725C96.2741 51.3527 95.0569 47.5287 95.0569 42.5007V27.6151H87.5533V18.406H95.0569V6.97388H105.53V18.406H119.614V27.6151Z" fill="black"/>
<path d="M164.27 56.8701H154.038V52.6229C151.176 56.1159 147.297 57.8625 142.401 57.8625C137.025 57.8625 132.544 55.9307 128.959 52.0671C125.374 48.2035 123.582 43.3871 123.582 37.6183C123.582 31.8493 125.374 27.0329 128.959 23.1693C132.544 19.3057 137.025 17.3739 142.401 17.3739C147.324 17.3739 151.203 19.1337 154.038 22.6533V18.406H164.27V56.8701ZM144.327 27.0197C141.331 27.0197 138.91 28.0385 137.065 30.0763C135.219 32.0875 134.296 34.6015 134.296 37.6183C134.296 40.6351 135.219 43.1623 137.065 45.1999C138.91 47.2111 141.331 48.2167 144.327 48.2167C147.297 48.2167 149.705 47.2243 151.55 45.2397C153.423 43.2285 154.359 40.6879 154.359 37.6183C154.359 34.5485 153.423 32.0213 151.55 30.0365C149.705 28.0253 147.297 27.0197 144.327 27.0197Z" fill="black"/>
<path d="M183.351 56.8702H172.878V18.4061H183.351V56.8702ZM173.32 3.02976C174.604 1.73307 176.182 1.08472 178.055 1.08472C179.927 1.08472 181.506 1.73307 182.79 3.02976C184.1 4.32646 184.756 5.90102 184.756 7.75344C184.756 9.60586 184.1 11.1672 182.79 12.4374C181.506 13.7077 179.927 14.3428 178.055 14.3428C176.182 14.3428 174.604 13.7077 173.32 12.4374C172.036 11.1672 171.394 9.60586 171.394 7.75344C171.394 5.87456 172.036 4.3 173.32 3.02976Z" fill="black"/>
<path d="M203.28 56.8702H192.807V1.08472H203.28V56.8702Z" fill="black"/>
<path d="M235.708 1.08472C242.45 1.08472 247.68 2.58108 251.398 5.148C255.142 7.68848 257.016 11.5389 257.016 16.6992C257.016 19.4249 256.254 21.8596 254.728 24.003C253.204 26.1466 251.25 27.6418 248.87 28.4886C251.544 29.3882 253.766 30.9628 255.53 33.2122C257.324 35.4616 258.22 38.0418 258.22 40.9526C258.22 46.2188 256.4 50.1884 252.762 52.8612C249.124 55.5338 243.894 56.8702 237.072 56.8702H212.756V1.08472H235.708ZM223.952 33.768V47.1054L236.51 47.145C239.854 47.145 242.37 46.6554 244.054 45.6764C245.74 44.6708 246.582 42.911 246.582 40.397C246.582 37.9094 245.74 36.1894 244.054 35.2366C242.37 34.2576 239.854 33.768 236.51 33.768H223.952ZM223.952 11.0625V24.0428H235.428C238.584 24.0428 241.018 23.5796 242.73 22.6534C244.47 21.7008 245.338 19.9806 245.338 17.4931C245.338 16.2493 245.084 15.1908 244.576 14.3175C244.094 13.4442 243.372 12.7826 242.41 12.3328C241.474 11.8564 240.444 11.5256 239.32 11.3404C238.196 11.1551 236.886 11.0625 235.388 11.0625H223.952Z" fill="black"/>
<path d="M283.766 17.3739C289.812 17.3739 294.828 19.3057 298.814 23.1693C302.826 27.0065 304.834 31.8227 304.834 37.6183C304.834 43.4137 302.826 48.2433 298.814 52.1069C294.828 55.9439 289.812 57.8625 283.766 57.8625C277.748 57.8625 272.746 55.9439 268.76 52.1069C264.774 48.2433 262.78 43.4137 262.78 37.6183C262.78 31.8227 264.774 27.0065 268.76 23.1693C272.746 19.3057 277.748 17.3739 283.766 17.3739ZM283.766 27.0197C280.798 27.0197 278.336 28.0121 276.384 29.9969C274.43 31.9815 273.454 34.5221 273.454 37.6183C273.454 40.7145 274.43 43.2549 276.384 45.2397C278.336 47.2243 280.798 48.2167 283.766 48.2167C286.762 48.2167 289.238 47.2243 291.19 45.2397C293.144 43.2549 294.12 40.7145 294.12 37.6183C294.12 34.5221 293.144 31.9815 291.19 29.9969C289.238 28.0121 286.762 27.0197 283.766 27.0197Z" fill="black"/>
<path d="M329.558 17.3739C335.604 17.3739 340.62 19.3057 344.606 23.1693C348.618 27.0065 350.624 31.8227 350.624 37.6183C350.624 43.4137 348.618 48.2433 344.606 52.1069C340.62 55.9439 335.604 57.8625 329.558 57.8625C323.54 57.8625 318.536 55.9439 314.55 52.1069C310.564 48.2433 308.572 43.4137 308.572 37.6183C308.572 31.8227 310.564 27.0065 314.55 23.1693C318.536 19.3057 323.54 17.3739 329.558 17.3739ZM329.558 27.0197C326.588 27.0197 324.128 28.0121 322.174 29.9969C320.222 31.9815 319.246 34.5221 319.246 37.6183C319.246 40.7145 320.222 43.2549 322.174 45.2397C324.128 47.2243 326.588 48.2167 329.558 48.2167C332.554 48.2167 335.028 47.2243 336.982 45.2397C338.934 43.2549 339.91 40.7145 339.91 37.6183C339.91 34.5221 338.934 31.9815 336.982 29.9969C335.028 28.0121 332.554 27.0197 329.558 27.0197Z" fill="black"/>
<path d="M365.632 32.1008H369.324L380.28 18.4061H393.12L377.792 36.5068L393.24 56.8702H380.36L369.164 41.31H365.632V56.8702H355.16V1.08472H365.632V32.1008Z" fill="black"/>
<path d="M8.09281 76.8579H411.114L403.022 66.3435H0L8.09281 76.8579Z" fill="black"/>
</svg>
