<svg role="img" aria-hidden="true" viewBox="0 0 150 55" fill="none" xmlns="http://www.w3.org/2000/svg"><g clip-path="url(#a)" fill="#000"><path d="M39.648 35.3c0-.15 0-.3-.01-.45a21.18 21.18 0 0 0-2.996-9.89 47.622 47.622 0 0 0-6.92-8.326c-1.195-1.22-2.462-2.516-3.637-3.815a33.096 33.096 0 0 1-2.328-2.873 27.65 27.65 0 0 1-2.7-4.606A27.092 27.092 0 0 1 19.27.1c0-.01-.022-.013-.03 0-.446.562-.95 1.16-1.37 1.658-.293.348-.526.621-.625.755-.79 1.034-1.611 2.12-2.385 3.266a22.565 22.565 0 0 0-2.699 5.156c-.128.372-.253.743-.352 1.125a13.565 13.565 0 0 0 .969 9.39c1.675 3.268 4.585 5.566 7.4 7.785a50.778 50.778 0 0 1 4.339 3.7 17.28 17.28 0 0 1 4.013 5.775l.054.139c.055.138.11.28.144.383l.095.26c.226.715.41 1.442.553 2.178a17.111 17.111 0 0 1-3.019 13.085l.004.006a20.61 20.61 0 0 0 10.1-8.053 20.146 20.146 0 0 0 3.193-11.134l-.005-.275Z"></path><path d="M17.33 32.244c-4.425-3.581-9.39-7.599-10.031-15.453a.015.015 0 0 0-.027-.006l-.129.189c-.61.897-1.24 1.823-1.769 2.773l-.456.815a58.595 58.595 0 0 0-3.686 7.397 23.8 23.8 0 0 0-1.193 6.09c-.3 4.251.745 8.49 2.988 12.113 2.62 4.148 6.507 7.27 10.4 8.354.875.244 1.778.369 2.685.37.12 0 .24 0 .36-.005a9.224 9.224 0 0 0 8.075-5.537c.59-1.274.921-2.651.974-4.054.156-6.292-3.898-9.573-8.19-13.046M59.91 31.387h-8.899a.574.574 0 0 0-.556.591v15.225a.576.576 0 0 0 .556.592h8.9a.572.572 0 0 0 .556-.592V45.75a.574.574 0 0 0-.556-.592h-6.819v-4.314h5.727a.574.574 0 0 0 .556-.59V38.8a.573.573 0 0 0-.556-.593h-5.727v-4.184h6.819a.574.574 0 0 0 .556-.592v-1.453a.574.574 0 0 0-.556-.59ZM74.486 31.387h-1.53a.574.574 0 0 0-.557.591v10.21L65.81 31.65a.548.548 0 0 0-.463-.264h-1.45a.573.573 0 0 0-.558.592v15.225a.573.573 0 0 0 .557.592h1.53a.572.572 0 0 0 .558-.592V36.957l6.591 10.573a.55.55 0 0 0 .464.265h1.448a.574.574 0 0 0 .557-.592V31.978a.574.574 0 0 0-.557-.59ZM87.536 31.387h-8.9a.574.574 0 0 0-.556.591v15.225a.576.576 0 0 0 .556.592h8.9a.573.573 0 0 0 .559-.592V45.75a.574.574 0 0 0-.56-.592h-6.818v-4.314h5.727a.574.574 0 0 0 .556-.59V38.8a.574.574 0 0 0-.556-.593h-5.727v-4.184h6.819a.574.574 0 0 0 .559-.592v-1.453a.574.574 0 0 0-.56-.59ZM94.011 34.023h3.27c.86 0 2.303.286 2.303 2.21 0 1.904-1.443 2.188-2.303 2.188h-3.27v-4.398Zm5.35 6.645a4.525 4.525 0 0 0 2.867-4.457 4.564 4.564 0 0 0-2.923-4.53c-.6-.23-1.244-.33-1.886-.294h-5.497a.574.574 0 0 0-.556.59v15.227a.574.574 0 0 0 .556.592h1.53a.572.572 0 0 0 .558-.592v-6.168h2.546l3.108 6.437a.553.553 0 0 0 .495.323h1.795a.557.557 0 0 0 .475-.287.624.624 0 0 0 .017-.582l-3.085-6.259ZM115.665 38.657h-5.055a.577.577 0 0 0-.52.37.575.575 0 0 0-.036.222v1.389a.575.575 0 0 0 .556.592h2.967v.583a3.622 3.622 0 0 1-.676 2.387 2.873 2.873 0 0 1-2.29 1.09 2.7 2.7 0 0 1-2.081-.891c-.74-.807-.847-1.75-.847-4.809s.107-3.999.849-4.808a2.703 2.703 0 0 1 2.081-.89c1.523 0 2.595.961 2.943 2.637a.57.57 0 0 0 .545.463h1.53a.547.547 0 0 0 .425-.208.633.633 0 0 0 .125-.477c-.463-3.022-2.699-5.053-5.565-5.053a5.32 5.32 0 0 0-3.978 1.671c-1.528 1.623-1.593 3.215-1.593 6.663 0 3.447.065 5.04 1.593 6.663a5.325 5.325 0 0 0 3.978 1.67 5.43 5.43 0 0 0 4.24-1.947c1.001-1.18 1.372-2.347 1.372-4.31v-2.416a.577.577 0 0 0-.558-.592M128.574 31.387h-1.651a.553.553 0 0 0-.502.333l-2.847 6.207-2.88-6.21a.554.554 0 0 0-.502-.33h-1.651a.547.547 0 0 0-.473.283.618.618 0 0 0-.024.574l4.214 8.814v6.145a.577.577 0 0 0 .558.592h1.529a.571.571 0 0 0 .558-.592v-6.147l4.17-8.813a.63.63 0 0 0-.024-.574.544.544 0 0 0-.475-.281M136.957 44.443h-.618v-1.799h.618c.155-.003.31.019.458.064a.766.766 0 0 1 .292.172.679.679 0 0 1 .17.266c.04.12.06.244.059.37.002.136-.019.27-.061.4a.69.69 0 0 1-.17.28.793.793 0 0 1-.296.18 1.37 1.37 0 0 1-.451.066m1.775-2.436a2.01 2.01 0 0 0-.744-.43 3.24 3.24 0 0 0-1.032-.15h-1.836a.172.172 0 0 0-.12.054.173.173 0 0 0-.047.124v5.999a.166.166 0 0 0 .047.123.169.169 0 0 0 .12.054h1.051a.173.173 0 0 0 .121-.054.18.18 0 0 0 .046-.123V45.67h.618c.345.006.688-.046 1.016-.154.277-.093.531-.245.745-.444a1.83 1.83 0 0 0 .454-.69c.101-.277.152-.57.149-.865a2.411 2.411 0 0 0-.144-.837 1.738 1.738 0 0 0-.446-.673M144.049 46.508h-2.09v-4.902a.173.173 0 0 0-.167-.178h-1.053a.171.171 0 0 0-.167.178v5.998a.179.179 0 0 0 .046.123c.016.017.035.03.055.04.021.009.043.014.066.014h3.309a.173.173 0 0 0 .121-.053.18.18 0 0 0 .046-.124v-.921a.165.165 0 0 0-.047-.123.164.164 0 0 0-.055-.038.167.167 0 0 0-.065-.015M149.956 46.616l-.419-.485a.358.358 0 0 0-.435-.08.46.46 0 0 0-.12.088c-.073.07-.152.133-.236.19-.076.049-.158.09-.243.12a1.4 1.4 0 0 1-.287.072 2.562 2.562 0 0 1-.367.025 1.45 1.45 0 0 1-.606-.129 1.415 1.415 0 0 1-.484-.369 1.88 1.88 0 0 1-.334-.605 2.6 2.6 0 0 1-.124-.84 2.706 2.706 0 0 1 .118-.839c.065-.22.173-.424.318-.602a1.34 1.34 0 0 1 .482-.37 1.5 1.5 0 0 1 .627-.128c.12-.002.24.01.358.032.093.018.185.045.273.08.07.026.137.06.2.1.064.04.117.076.166.11.048.034.097.066.149.095a.394.394 0 0 0 .43-.016.468.468 0 0 0 .118-.126l.352-.52a.185.185 0 0 0 .032-.118.186.186 0 0 0-.051-.111 2.772 2.772 0 0 0-.861-.602 2.845 2.845 0 0 0-1.163-.23 2.924 2.924 0 0 0-1.196.241 2.758 2.758 0 0 0-.937.673c-.269.3-.476.649-.61 1.029-.147.418-.219.86-.215 1.302-.004.439.063.875.198 1.292.124.379.321.73.58 1.032.253.289.565.52.914.678.377.165.786.247 1.197.241.439.012.874-.075 1.274-.255.359-.17.67-.425.908-.742a.183.183 0 0 0 .038-.117.182.182 0 0 0-.044-.116ZM59.55 16.514a4.67 4.67 0 0 0-2.886-1.235l-1.668-.278a3.23 3.23 0 0 1-1.599-.655 1.733 1.733 0 0 1-.45-1.328c0-1.435.905-2.253 2.484-2.253a3.797 3.797 0 0 1 2.958 1.163.536.536 0 0 0 .778-.01l.988-1.048a.614.614 0 0 0-.026-.861 6.162 6.162 0 0 0-4.638-1.817c-3.128 0-5.149 1.911-5.149 4.868a4.35 4.35 0 0 0 1.298 3.31 5.394 5.394 0 0 0 2.908 1.297l1.664.255c.994.165 1.268.294 1.593.609a1.88 1.88 0 0 1 .515 1.458c0 1.943-1.784 2.233-2.847 2.233a4.214 4.214 0 0 1-3.517-1.473.532.532 0 0 0-.79 0l-1.026 1.09a.618.618 0 0 0-.004.832 6.579 6.579 0 0 0 5.292 2.187c3.347 0 5.51-1.928 5.51-4.911a4.533 4.533 0 0 0-1.39-3.433M68.862 10.83a2.754 2.754 0 0 1 2.081.893c.742.806.846 1.75.846 4.803s-.105 3.997-.843 4.799a2.873 2.873 0 0 1-4.163.005c-.742-.807-.848-1.748-.848-4.804s.106-4 .845-4.801a2.759 2.759 0 0 1 2.082-.896Zm0 14.028a5.3 5.3 0 0 0 3.958-1.67c1.547-1.644 1.612-3.23 1.612-6.662 0-3.433-.066-5.02-1.612-6.663a5.55 5.55 0 0 0-7.938 0c-1.528 1.623-1.592 3.216-1.592 6.663s.063 5.04 1.592 6.662a5.323 5.323 0 0 0 3.98 1.67ZM88.092 8.32H86.56a.574.574 0 0 0-.556.592v10.073c0 1.966-1.148 3.236-2.928 3.236-1.795 0-2.907-1.24-2.907-3.236V8.912a.574.574 0 0 0-.556-.591h-1.531a.574.574 0 0 0-.558.591v10.201c0 3.329 2.336 5.742 5.552 5.742a5.475 5.475 0 0 0 5.571-5.742v-10.2a.574.574 0 0 0-.556-.592ZM103.034 8.32h-1.531a.577.577 0 0 0-.556.592v10.21L94.355 8.585a.548.548 0 0 0-.463-.263h-1.45a.574.574 0 0 0-.558.591v15.225a.573.573 0 0 0 .557.592h1.531a.574.574 0 0 0 .556-.592V13.892l6.592 10.574a.54.54 0 0 0 .465.264h1.449a.568.568 0 0 0 .401-.18.574.574 0 0 0 .156-.411V8.912a.574.574 0 0 0-.557-.591ZM109.268 10.958h2.566a2.918 2.918 0 0 1 2.404.916l.008.009c.797.9.797 2.799.797 4.643 0 1.843 0 3.742-.805 4.65a2.913 2.913 0 0 1-2.404.917h-2.566V10.958Zm2.827-2.637h-4.913a.574.574 0 0 0-.558.591v15.226a.59.59 0 0 0 .339.541c.069.032.143.049.219.05h4.913a5.147 5.147 0 0 0 4.175-1.793c1.416-1.625 1.416-4.058 1.416-6.411 0-2.353 0-4.788-1.416-6.411a5.149 5.149 0 0 0-4.175-1.794"></path></g><defs><clipPath id="a"><path fill="#000" transform="translate(0 .093)" d="M0 0h150v54.793H0z"></path></clipPath></defs></svg>
